<?xml version="1.0" encoding="UTF-8"?>
<svg xmlns="http://www.w3.org/2000/svg" viewBox="200 150 250 150">
  <defs>
    <style>
      .cls-3 {
        fill: #1d63ed;
      }
    </style>
  </defs>
  <g id="Layer_2" data-name="Layer 2">
    <path
      class="cls-3"
      d="M393.51,203.58c-.9-6.62-4.54-12.37-11.16-17.56l-3.81-2.57L376,187.31a30.26,30.26,0,0,0-4.34,18.47A23.62,23.62,0,0,0,375,215.91a26.87,26.87,0,0,1-13.17,2.93H243.64l-.23,1.37c-1.11,6.64-1.1,27.36,12.19,43.28,10.09,12.1,25.22,18.24,45,18.24,42.8,0,74.48-20,89.32-56.26,5.83.12,18.4,0,24.85-12.44.16-.28.56-1.05,1.68-3.41l.62-1.29-3.62-2.45c-3.92-2.67-12.94-3.64-19.89-2.3Zm-55.37-44.31h-18v16.55h18Zm0,19.86h-18v16.55h18Zm-21.24,0h-18v16.55h18Zm-21.24,0h-18v16.55h18ZM274.42,199h-18v16.55h18Zm21.24,0h-18v16.55h18Zm21.24,0h-18v16.55h18Zm21.24,0h-18v16.55h18Zm21.24,0h-18v16.55h18Z"
    ></path>
  </g>
</svg>
